<svg xmlns="http://www.w3.org/2000/svg" preserveAspectRatio="xMaxYMax meet" viewBox="0 0 937.3 399.6">
  <path fill="#fff" d="M332.2 167.1h142.4v55.2H332.2zM543.4 245H643v81.5h-99.6z"/>
  <path fill="#fff" d="M628.5 185.1H699v74h-70.5z"/>
  <path fill="#fff" d="M668.6 156h16.2v33.4h-16.2zM716.6 195.7h33v53.8h-33zM565 166.9h40.9v79.4H565zM483.5 183.4h61.8v61.7h-61.8zM449.1 56H468v64.8h-18.9zM386.3 120.7h4.5v7.5h-4.5z"/>
  <path fill="#050505" d="M0 371v-28.4c14.6 1.2 29.5 4.5 43 5.7 7.1.5-1-27.5-2-34.1-.7-4.3-.8-7.4-.2-13.9.2-2.5-.1-2.9-2-2a15.2 15.2 0 0 0-2.3 6.6c-.1 2.8-1.3 5.3-2.8 7.6-.7.5-.8 1.2-1.1 3.8-1.3 6.3-.5 13.9-3 19.6-.5.4-.1-4.2.2-5.2.2-.6 1.9-12.5 1.9-14 0-3.4-1-4.7-2.7-7.4-.7-1-.6-1.8.2-4s1.6-8.3 1.2-9.1c-.5-.9-.4-1.7.5-3 3.6-11 3.3-24.2 6.7-34 .9-5 1.4-10.4 2.1-16 .9-7 9.5-10.9 12.4-15.4-2-1.8-4-4.6-4.1-7.4a6 6 0 0 0-1-2.7c-1-1.6-1.1-1.8-1.3-5.4-.8-5.6 2.7-9.7 6.5-11.8 10.8-3.3 16.7 3 17.9 11.1.4 3.4 1.3 7.9-.5 10.1-2 2.4-1.5 3.2 3 5.4 8.5 2.3 12.2 10.7 15 17.5 3 9.9.4 19.1 1.7 27.3.4 1.4.3 1.6-.4 3.2-2.9 8.5-6.8 17-7 25.4 0 2.5-.3 4.4-1.2 7.7-.4 1.5-2 1.9-3.1 2.6a97.7 97.7 0 0 0-3.3 39.8c9 .1 28.7 4.5 35.3 2.6 1-1.2.7-14.3-.3-16.8-1-2.2-1.2-4.6-1.4-13.4-.6-9-1.2-14.6-1.2-22.8-1.4-1-2.8-.9-4.2-1.8-1.6-.4-1.7 2.5-1.5 4.4-.6 3.4-2.1 3.5-1 6.3.9 4.7-5.6-.2-6.4-2-.5-1-1-4-1.4-4.6-3-6.5-.3-12-.2-17.6-.2-14.2 4-28.2 8.2-40.7 1.9-6.9 7.2-10.7 12.9-12.8 4.2-2 4.7-3.4 7.9-7 0-3.3-1.9-6-2-9.4-1-4-1.4-6.9.3-10.8 1.8-3.6 5.5-6.7 9.6-6.4 11.5.4 12.5 9 11.3 18.9-.6 3.5-4.2 7.5-1.7 10.5 4.8 8 14 9.2 17.2 15.5 5 14.8 2.3 27 5.5 40.7.9 4-1 9.5.9 13.2.8 1.6.9 2 .9 6.1-2.4 5.6-.9 8.2-3.5 12.7-2.8 10-1.8 11.2-2.4 23.2-2-6.4.9-16.9-1-24.3-1-.4.7-4.1-1.3-6-1.4-1-1.3-7-2.8-10.2-.5-2.3-1.1-1.6-1.2.5-.3 2.4-1 2.8-2.6 4.2.4 10.7 1.5 21.1.3 32.2-.7 4.6 0 9-1 13.6-.5 2.6.3 5.4.5 7.6 9.7 1.4 27.1 2.7 35.6 2.7 1-3.4.1-6 1.4-10.7.4-7.4-.9-25.5-4.8-32.2-.8-1.1-.8-5.1-2.1-4-.6.8-.3 1.7-.5 2.6-.7 1.8-5.3 2-9 .2-2.5-4.3-1.6-6.7-2.8-12.2-.6-13 .6-24.9 1-31 2-8.5.5-26.7 6-33.8 3.9-2.7 6.4-6.1 10.6-8 4.7-1.3 3-4.4 1-7-.5-2-1-4.9.1-6.7-.3-2.3-2.7-1.3-4.3-.9-.8.3 1-1.7 3.1-2.2 7.5-4.8 7-12.3 16.7-12.2 4.9-.2 9.3 2.2 11.2 6.5 1.6 8-.8 14-5.3 18.6l-2.7 2.8c.3 4 4.2 6.6 7.6 7.6 2.7.8 3 1.4 2.1 4.5 0 2.3 3.2 2 4 4.8 3.6 16.1 1.2 42.2 7.8 55.4.4 1 .7 2.6.8 3.7-.1 4.6 2.6 8.1 3.3 12.3.5 2 1 4.3 1 6.2a9 9 0 0 0 1.1 4.4c.7 1.2 1 2.4 1.1 3.8l.2 2.1c11.4-1.9 14.2 16.5 18.3 16.9 13.4-5.5 13.5-33.2 24.6-35 6.6-.4 10.4 1.6 17.8 2.6 8.3 0 28.5-11 30.1-17.5 3.6-9 1-22.8 4.4-31.2-.1-5.2.3-13.9-2.7-20-3.5-8.8.6-18.6.7-28.3-3-8.4-9.2-6.2-13.6-12.2-.2-.5 2.3-7.3 4.5-5.4 3.9 1.8 6.4 1.5 10.2 0 4.3-17 .7-38 7.6-52 .7-1.4 1.4-1 2.1 1.2 1 3 1.5 2.9 2.9-.3 3-8.3 1.6-18.8 2.2-28.5.8-3.5 3.5-8.4 6.3-10.2 3 3.8 4.4 9.4 4 12.2 0 2.3-.9 4.6-1 6.8 15.3-1.2 22.6.7 33.4-2.4 1.4-3.7 0-9.3 2-14.3a82 82 0 0 0 5.5-24.3c.5-4.3.8-5.7 1.3-5.2l.5 5.7c.9 8.7.8 16.8 2.9 22.6 1.7 7.7-1 13 1 13.9 8.2-1.2 17-.2 24.3-2.9.5-2.3.8-9-1.2-11.2-1.4-.6-1.3-1.6.6-5.8 3.6-10.2 8.6-17.8 11.5-28 .3-5.7.7-10.7.7-16.8-2.3-.8-3.2-3.5-4-6 1.2-9.6-1.3-10.2 2-18.8.3-1 .8-1.7 1-1.7.2.1.5.7.8 1.4.6 1.9 1 2 1.8 1 .9-1.1 1.3-1 1.6.7.5 2.6.6 3 1 3 1.4-.7 2-1 2.2.5 1 6.2 2.6 10.5 3.7 10.5 3.6-6.5 17.6-38.3 15.4-42.5-.6-1.1-.2-2 1-2 1.4 0 1.8.8 1 2.1-.5 1-.5 1.4-.1 3.4 8.7 35 21.1 70.1 29.4 100.8 0 .7-1.2 1.7-2.4 2.1-.2 0-.3 3-.3 7.9v7.7l-1.1 1-1.8 1.4c-.8.5-1 4.2-1 18.6-.1 9.1 0 11 .4 11.3.3.3.6.2 1-.3.8-1.2 1-2.2 2-3.3l2.6 1.2c2.1-3 4.5-7.2 4.8-10.8 0-.9.6-1.5.7-.8l2.6 9.9c1 3.4 1.1 4.5.6 5.8-.6 1.5-.4 5.8.3 6.5 5.5.7 15.8 6 21 3.5 4.7-11.8 5.9-25.5 11.5-37.6 5.5 7.4 6.3 16 8.7 24 4 13 4.1 13.3 5.5 12 1-1.7.8-3.4 1.6-4.9 1.8 8 1.2 11.7 1.5 21.9l3 8.4c-2 17.7-2.1 19-2.8 26.9.5.6 10 .3 10.6-.4.8-14.1.3-21.2 0-39.6-1.3-.8-2.7-1.8-3.8-2.9-1-4 .8-6 1.7-9.9 3.7-7.6 11.2-14.4 15-21.4 2-3 2.1-5.7 2.3-9.3.2-4.9.2-5 1.4-7.6 1.4-3.5 2.4-4.3 3.7-.2 1.5 5 .6 8 1.6 13.4 2.4 1 7 2.8 8.2.4 1-2.5 4.5-1.4 4.6.7 2.2 6 3.5 8.5 8.2 13.1.6 0 1.3-1 1.7-2.8.6-2.3 1.4-.3 1.8.8 2 3.1 2.2 7.6 4.5 10.5.5.2 1.8-1.1 2.4-2.4.7-1.8 1.4.1 1.9.9 1 1.7 1 1.8.6 3.2-.9 3.2 0 7.8 2 10 1.6 1.6 3.1.2 3.1-2.7.3-3.4 1.6 1.8 1.6 2.9.6 3.8 3.3 10.3 4.1 5.2-.3-1-.2-1.4.8-3.7 3.7-7.1 4-16.3 8.3-22.8 5 6.4 8.2 14.8 14 20.5.7.3 5.2-.6 6.5-1.3 1.5-5.6 1-18.2-1.7-23.5a17 17 0 0 1-.8-11l2.6-8.5c.7-2.7 1.3-2.5 3.1 1.1a54 54 0 0 0 5.6 10.1c3-5.4-1.8-17.7-4.4-24.3-1.1-2.2-1.1-2.3 3.2-8.9 2.5-4 5.3-8.2 7.9-11.9 1.3-1.9 3.4-4.3 3.6-4.8 5.5 4.5 17.1 18 19.4 20.3.2 3.9-1.3 7.5-2.5 11.5 1.1 5.7-3 13.9 2.2 17.8 2.4 2.2 5 2.6 4.5-1.5-1.6-.9.5-8 2.7-11.4 2.3 3 5.5 7.8 5 11.4-.4 5.2 0 8.6.5 13.6-1 1.8-2.9 5.9-3.9 7.6-2.1 5.7 0 12 1.2 18.2 5.3-.6 21.4-2.7 24.4-4.9.7-2.8 2.2-5.6 3.5-7.8 3-5 2.7-3.9 2.5-10.4-.2-4.2 1.1-3 1.7 1.7.4 3.1.7 3.6 5 8.4 5 4.2 4.7 6.5 5.9 11 .4.4 3 .5 3.7 0 .8-1.3.4-2.5 2.2-4 2.7 2.4 2.7 4.6 3.2 9.8.8 9.3 2 18.3 2.6 19.3 2.6 3 7.6 1.7 7.3 5.1-.8 9.6 4.6 8 9.7 8.7 11.8-.6 27.7-2.5 39.4-5.8 8-2.2 8.1-14.2 15-17.7 4-3.1 5.4-3.6 11-4.2 4.3-2.6 4.4-6.1 4.9-10.8.4-4.1 0-3.6 6.2-9.7 7.6-7.8 29.7-31 38-31.2 5.7-.4 11.4-3.9 13.8-6.3 5.8-6 9-8.4 13-9.8 5.4-2 14.3-6.8 16.7-9 1.3-1.2 3.3-2.5 3.8-2.5.4 0 .5 22.2.5 140.3v140.3H0zm201.8-33c-1 7.5-5 17.5-2.9 22.4.6.3 2.8.4 3.3.4 2-6.6 1.8-14.8-.4-22.8zM132 354.7c1.4-6.5.1-12.6-.3-19a44.5 44.5 0 0 0-4-16.1 44 44 0 0 0-2.2 18.7c-.3 6.7-1.2 10.2-.5 16.2 2.1 1 4.4 1 7 .2zm98.7-20.6c.1-3-1.5-3.9-2.2-5.8-.5-5.3-2.3-5.6-5.9-9-5.7-9-4.2 19.9-3 21.1 4.1-2.1 7.7-4 11-6.3zm-51.3-35.4c.1-2.2-2.2-2-2.8-1-1 1.8-1.2 3-.4 3.8.8 1.4.4 3.6 1.7 3.3 1.5-1.1 1.1-4.4 1.5-6.1zm413.6 2.6c.3-2 2-32-2.1-41.1-1.5-2-1.8-2.2-2.4-1.6.4 16.1-1.2 26 1.3 41.5.4 1.1 3 2 3.2 1.2zm9.5-1.8l1.2-2.8c2-7.4 2.6-23.1 0-32-.5-1-3.4-3.7-4-3.6 0 12.8-2 23.4 1.3 39.7.4.6.9.2 1.5-1.3zm-20-4c1.4-8.9.2-22.3-.3-33.4-1.3-1.8-2.3-4.4-4.5-4.4v4.6c0 6.4.8 31.6 1 32.2 1.2 1.3 2.3 1.6 3.8 1zm-10.6-5c-.6-8 2.2-28.1-2.3-32.5-2-2.1-2.5-2-2.8 1-.3 10.6-.2 18.8-.2 29.8 1.6 1.2 3.9 2.3 5.3 1.6zm-392.3-11.2a12 12 0 0 0-.7-10.1 43.6 43.6 0 0 0-1.8 17.4c1.7-1.6 1.6-5.3 2.5-7.3zm434.7.7c.4-1-.1-13-.6-14.2-.4-1.1-3.8-4.1-4.4-4-.7 6.2-1 14.5.3 22.2 2.3.2 3.4-1.9 4.7-4zm-58-12.4c.5-.5 1-9 .6-10.8-.2-1.3-1.6-3.1-2.3-3.1-2 2.5-2.7 11.2-1 14 .5.5 2.3.5 2.7 0zm12.9-33.5c.7-.4.8-1.6.1-2.2-1-.9-2.3 1-1.4 2.1.5.6.5.6 1.3.1zm80.6-1.2c.2-.4.3-3.3.3-7.2 0-6.9 0-7.4-1.5-7.2-.5.1-.6.7-.8 3.8-.3 4.3 0 10.2.5 10.8.5.6 1.1.5 1.5-.2zm-131.6-9.4c1.5-2.7 1.6-6.2-.1-8.2-2.1-2.5-5-3.2-7.8-2-4.7 3.8-5.1 13.4-3.3 19 4.8 1.3 9.4-6 11.2-8.8zm206.2 8.6c.6-.7.8-6.4.3-7-.5-.7-1.5-.7-1.9 0-.3.6 0 6.5.4 7.1.3.5.7.4 1.2-.1zm3-3.3c-.2-2.9-.3-3.4-.8-3.1-.3.2-.4 6 0 6.3.5.6.8-.6.7-3.2zm2.4.7c0-2.4-.1-3.7-.6-3.7-.2 0-.3 1.3-.3 3.1 0 2.3 0 3 .4 3 .2-.1.4-1 .5-2.4zm-73 1.7c.4-.4.5-9.8.1-12.4-.2-1.7-1.1-2.1-1.6-.8-.4 1-.5 13-.1 13.4.3.3 1.2.2 1.6-.2zm-59.3-1.8c0-1.7 0-1.8-.9-1.9-1.2-.1-1.8.4-1.8 1.8 0 1.5.5 2 1.7 2 1-.2 1-.2 1-2zm138.4-.2c0-2.2-.4-2.9-1.2-2-.4.7-.6 3.5-.2 3.9l.8.2c.5 0 .6-.3.6-2zm-201.8-2.8c.4-.7-.4-1.6-1.2-1.3-.5.2-.7 1.4-.3 1.8.4.4 1.1.1 1.5-.5zm-35.8-4c.5-1.4-.3-2.8-1.3-2-.5.4-.6 2-.2 2.3.3.4 1.3.3 1.5-.2zm-9.1-5c.2-.3.3-1.6.2-3.6 0-2 .7-3.1-1.5-3.3-2-.1-2.2.4-2.2 3.6-.3 2.7 1 4.4 3.5 3.3zm-18.4-2.1c.8-.3.8-.3.8-4.1 0-4.4-.2-4.9-2.3-4.9-2 0-2.3.8-2 5.1 0 2.8.6 5 3.5 3.9zm-10.3-.3c.4-2.4.8-5.3 0-7.2-3.6-1.7-4.6 1.9-4.6 3.6-.3 3.7 1.3 4.4 4.6 3.6zm136.8-1.4c.2-.2.4-1 .4-1.6 0-1.4-1-2.2-2.2-1.9-.8.2-.9.5-1 1.6v1.9c.3.5 2.2.5 2.8 0zm73.6 0c.4-.5.5-3.3 0-4.1-2-1.6-2.8 1-2.8 2.2 0 1.7.4 2.3 1.6 2.3.4 0 1-.2 1.2-.4zm9.3 0c.2-.2.4-1 .5-1.8.4-2.3-1.4-3.9-2.5-2.2-.6.8-.7 3.5-.2 4 .6.5 1.7.5 2.2 0zm56.5-1c1-.3 2.1-.8 2.3-1 .6-.8.3-7.5-.4-9-.6-1.3-2.7-3.2-3.7-3.5-1-.2-2.5.9-3.7 2.8-1.2 4.2-1 6.2-.5 11.3.3.3 3.4 0 6-.7zm-87.5-6.6c0-4.8-.3-6-1.1-6-1 0-1.2 1.2-1.2 6.1 0 4.4.1 5 .6 5.3 2.4.5 1.7-5 1.7-5.4zm6.7 4c.5-4 .2-6.5.2-10.9h-1.6c.1 3.5-.9 9.1.8 11.4 0 0 .4-.2.6-.5zm-111.7-4.4c.1-1.2-.6-1.7-1.3-1-.7.6-.8 1.1-.2 1.7.6.6 1.4.2 1.5-.7zm-22.1.3c.5-.5.4-2-.2-2.5-2 .6-1.2 2.8.2 2.5zm9.6 0c.8-1.4 0-2.4-1-2.8-1.4 0-2 1.3-1.2 2.6.4.7 1.6.8 2.2.2zm43.5-.6c.2-.2.4-1 .4-1.5 0-.7-.2-1.4-.4-1.6-.6-.6-2.1-.4-2.5.3-.8 1.4-.1 3.2 1.2 3.2.5 0 1-.2 1.3-.4zm-59.8-.6c.8-.9.2-2.9-.9-2.9-.6 0-1 1.5-.7 2.4.3 1 1 1 1.6.5zm-6.9-1.3c.5-1.3 0-2.6-.8-2.5-1 .2-1.4 1.5-1 2.6.5 1.2 1.4 1 1.8-.1zM337 193.1c-1-1.3-2-1-3.5-.5-1 2.4.2 5.1.1 5.4 4.4.8 3.8-2.6 3.4-5zm109.7 7.7c0-4 2-11.8-.6-14.1-2.3-2-6.4-1.3-7.6 1a52 52 0 0 0 0 13.1c2.8.5 5.2.7 8.2 0zm21.7-1.3c.3-.2.4-2.2.4-7 0-7.3 0-7-2.3-8-7-2-6.7 5.5-6.7 8 .6 8.1 1.6 8.8 8.6 7zm-121.6-2.7c.5-.7.5-4.3 0-4.8-1.1-.6-2.2-.4-3.4 0-.5.5-.5 4.8 0 5.3.6.6 2.9.3 3.4-.5zm10.1-.4c.8-1.8.5-2.9.4-5-1.3-.2-2.7 0-3.6.4-.5.7-.5 4.3 0 4.9.6.6 2.6.4 3.2-.3zm11-.4c.5-.6.7-3.8.4-4.6-1.1-1.2-2.4-.8-3.8-.3-.6.8-.8 4.2-.3 4.8.5.6 3.3.7 3.7.1zm10.3-.2c1.1-1.6 1.2-3.8.4-5.2-.7-.6-2.7-.5-3.5.1a11 11 0 0 0-.2 5.2c.4.3 2.7.2 3.3-.1zm10.4-1c.8-1.7.7-3.1.4-5-.3-.6-3.2-.6-3.7 0-.4.3-.5 4.7-.1 5.1.3.4 2.8.2 3.4-.2zm280.8-2.6c0-3.1-1-4.3-2.6-3-.4.5-.6 1-.6 3 0 2.4 0 2.4 1.5 2.9 1.9-.5 1.7-1.9 1.7-3zm15.7 2.5c.5-1.7.5-3.8-.4-5.2-3.2-1.4-3.1 2.7-2.3 4.8.5.9 2 1.1 2.7.4zm-285.8-.6c1-2.3.8-5.5-1.5-5.3-3 1-3 3-2.2 5.6.5.6 3 .3 3.7-.3zm145.6-.3c.1-.7-.8-1.2-1.3-.7s0 1.4.6 1.3c.3 0 .6-.3.7-.6zm94.5-4.6a11 11 0 0 0-3.3-3.3c-.7 0-3.1 2.6-3.1 3.4 0 .8 2.3 3 3 3a8.2 8.2 0 0 0 3.4-3zm-35.4-.8c.3-.6-.4-1.2-.8-.7-.4.3-.2 1 .3 1 .2 0 .4-.1.5-.3zM338.2 186c.4-2.9 1.5-13-1.2-13-1.5 0-2 .6-2.3 3-.4 3-.5 9.5-.2 10s3.2.5 3.7 0zm9.3-.3c0-3.3 1.2-7 .3-12.4-.5-.5-3-.5-3.4 0-.3 4-.7 8.3-.7 12.4.5.4 3 .5 3.8 0zm195.2-.4c0-.6-.8-1-1.3-.6-.5.5 0 1.4.6 1.3.3 0 .6-.4.7-.7zm-184.7-.6c.6-.4.6-11 0-12.3-.5-.6-2-.5-2.8.1-.9 2.9-1 9.2-.6 12.6.9.3 2.8 0 3.4-.4zm10.6-.6c.5-.6.5-11.8 0-12.4-.5-.5-2.3-.5-3 0-1 3.6-.6 8.3-1 12.5.5.4 3.6.3 4-.1zm10.7-.8c.7-4.6.3-6.8 0-12.4-1-.2-2-.1-2.9.2-.9 1.2-1.5 11.5-.7 12.3.6.6 3 .5 3.6-.1zm10.6-.9c.9-4.3 1.2-7.1.1-12.6-.6-.1-2.5-.1-3.3.5-1 4.3-.8 6.9-.4 12 .3.7 2.8.7 3.6.1zm10.1-.5c1-2.3 1.8-13-1-13.1-4.2-.3-3 8.8-2.4 13 .3.5 2.6.5 3.4 0zm203.4-1.3c0-.9-.8-1.2-1-.5-.3.7 0 1.6.6 1.4.2 0 .4-.5.4-.9zm73-12.6c.3-.3.4-.8.2-1.2l-.3-1.5c0-.8-.1-.8-1.3-.8s-1.2 0-1.3 1a5 5 0 0 1-.3 1.5c-.5 1.2 2.2 2 3 1zm-90.6 2.4c0-1.1-.5-2-1.2-1.4-.4.3-.6 1.9-.2 2.3.5.5 1.3 0 1.4-.9zm-197.6-48c-1.5.5-1 3 0 3.2 1.4-.3 1-3.1 0-3.2zM460 97c-.5-.7-2.2-.3-2.4.4-.4.9-.4 3 1.5 2.4 1.7-.4 2.2-1 .9-2.8zm-3-30.6c-.8 1.5 1 3.2 1.5 3 1 .5 2-.6 1.8-2.6.1-1.4-2.4-3-3.3-.4zm216 31.9c-.2-1.1-.2-4 .2-4.2.4-.3.6.2.8 1.8.3 2.3-.4 4.3-1 2.4z"/>
</svg>
